<svg width="760" height="1440" viewBox="0 0 760 1440" fill="none" xmlns="http://www.w3.org/2000/svg">
  <defs>
    <linearGradient id="bg" x1="0" y1="0" x2="0" y2="1">
      <stop offset="0%" stop-color="#F6F8FF"/>
      <stop offset="100%" stop-color="#EEF2FA"/>
    </linearGradient>
  </defs>
  <rect x="0" y="0" width="760" height="1440" rx="72" fill="url(#bg)"/>
  <rect x="54" y="74" width="652" height="74" rx="24" fill="#FFFFFF"/>
  <rect x="54" y="188" width="652" height="230" rx="32" fill="#FFFFFF"/>
  <rect x="84" y="232" width="220" height="26" rx="13" fill="#E7EDFF"/>
  <rect x="84" y="274" width="580" height="16" rx="8" fill="#EFF3FD"/>
  <rect x="84" y="302" width="540" height="16" rx="8" fill="#EFF3FD"/>
  <rect x="84" y="330" width="420" height="16" rx="8" fill="#EFF3FD"/>

  <rect x="54" y="452" width="652" height="230" rx="32" fill="#FFFFFF"/>
  <rect x="84" y="496" width="190" height="26" rx="13" fill="#FFEED8"/>
  <rect x="84" y="538" width="580" height="16" rx="8" fill="#F5F2EB"/>
  <rect x="84" y="566" width="560" height="16" rx="8" fill="#F5F2EB"/>
  <rect x="84" y="594" width="380" height="16" rx="8" fill="#F5F2EB"/>

  <rect x="54" y="716" width="652" height="230" rx="32" fill="#FFFFFF"/>
  <rect x="84" y="760" width="190" height="26" rx="13" fill="#E7F5E9"/>
  <rect x="84" y="802" width="580" height="16" rx="8" fill="#EFF6F0"/>
  <rect x="84" y="830" width="535" height="16" rx="8" fill="#EFF6F0"/>
  <rect x="84" y="858" width="370" height="16" rx="8" fill="#EFF6F0"/>

  <rect x="54" y="980" width="652" height="336" rx="32" fill="#FFFFFF"/>
  <rect x="84" y="1024" width="250" height="26" rx="13" fill="#E8EDFF"/>
  <rect x="84" y="1066" width="580" height="16" rx="8" fill="#EFF3FD"/>
  <rect x="84" y="1094" width="550" height="16" rx="8" fill="#EFF3FD"/>
  <rect x="84" y="1122" width="350" height="16" rx="8" fill="#EFF3FD"/>
</svg>
